<?xml version="1.0" encoding="UTF-8"?>
<svg xmlns="http://www.w3.org/2000/svg" id="Layer_1" data-name="Layer 1" viewBox="0 0 413.95 489.61">
  <defs>
    <style>
      .cls-1 {
        fill: #eb1f27;
      }

      .cls-2 {
        fill: #fff6f3;
      }

      .cls-3 {
        fill: #f5947c;
      }
    </style>
  </defs>
  <path class="cls-1" d="m413.76,311.66c-1.8-12.5-3.53-25-5.29-37.5-.33-2.31-.69-4.62-.96-6.94-.22-1.9-.6-3.77-1.36-5.52-.45-1.03-.39-1.98-.19-3.03.85-4.59.78-9.18-.82-13.58-3.78-10.42-11.15-16.59-22.18-18.3-2.16-.33-4.31-.37-6.46-.03-.51.08-.83-.13-.86-.67h-.04s0-226.11,0-226.11H38.33v289.4h-.02c0,.58-.28.99-.78,1.25-.54.28-1.09.54-1.62.83-4.37,2.41-8.24,5.43-11.32,9.37-4.46,5.71-6.8,12.2-6.8,19.46,0,5.98,1.85,11.38,5.31,16.25.35.49.75.95,1.11,1.44.44.6.33.93-.35,1.06-.85.16-1.7.31-2.54.5-9.69,2.16-19.31,10.32-21.05,23.08-2.43,17.76,11.52,31.67,27.45,31.68,5.34,0,10.48-1.01,15.56-2.55,2.65-.8,5.27-1.67,7.81-2.78.39-.17.81-.27,1.32-.44h0c26.05,59.5,85.44,101.07,154.54,101.07h0c88.64,0,161.3-68.38,168.11-155.27,2.05.41,3.76,1.03,5.58,1.16,6.47.48,12.84-.24,18.94-2.31,6.75-2.29,11.62-6.74,13.63-13.83.72-2.52.91-5.07.53-7.7Z"></path>
  <path class="cls-2" d="m124.1,334.49c.12,1.32.25,2.64.37,3.95-.16.28-.12.52.14.72.12,1.32.25,2.64.37,3.95-.16.28-.12.52.14.72.13,1.31.26,2.63.39,3.94-.08.34.05.51.41.5,1.28-.15,2.57-.3,3.85-.43.36-.04.69.12.75.53.19,1.28.38,2.56.55,3.84.09.65-.28.91-.88,1-1.71.25-3.41.55-5.12.79-6.07.87-12.14,1.72-18.21,2.58-1.05.15-1.19.05-1.4-.96-.09-.42-.18-.85-.23-1.27-.46-3.63-.67-3.08,2.48-3.54.97-.14,2.35.16,2.82-.83.35-.74-.07-1.85-.15-2.79-.11-1.29-.22-2.58-.33-3.87.16-.28.13-.52-.13-.72-.14-1.49-.27-2.98-.4-4.47.17-.28.13-.52-.13-.72-.14-1.49-.27-2.98-.41-4.47.17-.28.13-.52-.12-.72-.42-4.28-.84-8.57-1.26-12.85.03-.24.11-.48.08-.71-.03-.22-.18-.41-.28-.62-.2.11-.49.17-.59.34-.15.26-.17.6-.25.9-5.51,12.38-11.07,24.74-16.48,37.16-.87,1.99-1.89,2.94-4.11,3.07-2.92.18-5.81.8-8.72,1.22-.7.1-.99-.14-.95-.83.11-2.07.26-4.14.39-6.21.25-.21.27-.45.11-.72.13-2.01.26-4.02.38-6.04.25-.21.28-.45.1-.72.15-2.18.3-4.36.45-6.54.25-.21.27-.45.11-.72.09-1.99.18-3.97.27-5.96.11-.2.26-.4.31-.62.03-.12-.1-.27-.16-.41-.09.13-.22.25-.28.39-.09.24-.05.47.17.64-.47-.12-.54.24-.68.54-1.21,2.58-2.36,5.2-3.67,7.73-3.07,5.93-6.67,11.52-10.99,16.63-2.02,2.38-4.2,4.6-6.52,6.68-7.47,6.67-16.3,10.28-26.12,11.7-1.54.22-3.09.16-4.64-.22-4.54-1.13-7.66-5-7.64-9.58.03-4.48,3.05-8.28,7.47-9.45,6.13-1.63,12.81,3.49,12.02,10.74-.08.75-.57,1.46-.25,2.29.83.12,1.48-.37,2.15-.68,3.74-1.72,6.95-4.19,9.87-7.05,3.35-3.28,6.2-6.98,8.76-10.9,4.11-6.33,7.47-13.03,10.34-20.01,3.33-8.08,6.16-16.33,8.42-24.77.18-.67.36-1.34.51-2.01.21-.92-.03-1.25-.99-1.34-1.47-.13-2.93-.06-4.39.18-5.74.96-11.24,2.77-16.72,4.64-1.72.59-3.41,1.25-5.11,1.87-.41.15-.8.32-1.1.77.65.39,1.34.73,1.96,1.17,3.36,2.36,4.85,5.64,4.24,9.65-.59,3.91-2.88,6.69-6.71,7.82-7.16,2.11-12.21-3.35-12.56-8.14-.31-4.34,1.23-7.97,4.35-10.93,2.63-2.49,5.8-4.04,9.25-5.05,3.9-1.14,7.8-2.26,11.7-3.39,7.88-2.28,15.77-4.57,23.65-6.85.66-.19,1.34-.32,2.01-.48.13.15.27.31.4.46,1.28,8.09,2.57,16.18,3.85,24.26-.13.33-.16.72.2.85.37.14.55-.23.69-.53.03-.07,0-.16-.02-.25,4.79-10.4,9.59-20.79,14.35-31.2.47-1.03,1.01-1.63,2.24-1.77,2.99-.34,5.96-.85,8.95-1.28.92-.13.99-.03,1.29,1.38-.16.28-.12.52.14.72.12,1.32.25,2.64.37,3.95-.16.28-.12.52.14.72.13,1.32.25,2.64.38,3.95-.16.28-.12.52.14.72,1.07,9.66,2.14,19.31,3.2,28.97.3,2.73.56,5.47.83,8.21-.16.28-.12.52.14.72Z"></path>
  <path class="cls-2" d="m232.93,289.5c1.37-.24,2.76-.32,4.13-.11,1.67.25,2.16,1.15,1.66,2.78-.36,1.19-1.08,2.15-1.84,3.09-3.69,4.57-7.38,9.14-11.07,13.71-.6.74-1.17,1.49-1.74,2.21.25.87.95,1.3,1.49,1.82,5.9,5.71,11.82,11.39,17.72,17.1.93.9,1.84,1.83,2.68,2.81.44.51.79,1.13,1.09,1.74.35.72.16,1.41-.52,1.8-.59.34-1.23.64-1.89.81-3.53.9-7.11,1.38-10.75,1.47-1.65.04-2.94-.52-4.14-1.72-6.15-6.19-12.37-12.31-18.57-18.45-.55-.54-1.15-1.03-1.73-1.55-.08-.1-.2-.3-.24-.29-.23.1-.34.26-.11.48.81,5.82,1.63,11.64,2.44,17.46.08.6.16,1.2.29,1.79.11.46.42.73.94.67.26-.03.52-.05.77-.08,2.47-.26,2.17-.27,2.48,2.08.43,3.25,1.03,3.12-2.71,3.61-5.57.73-11.12,1.59-16.69,2.34-3.74.5-3.26.91-3.75-2.79-.29-2.17-.69-2.16,1.93-2.61.34-.06.69-.09,1.03-.14.4-.06.61-.32.61-.7,0-.52-.05-1.04-.12-1.55-1.71-12.24-3.42-24.48-5.15-36.72-.98-6.93-1.98-13.86-2.97-20.79-.04-.26-.07-.51-.1-.77-.06-.52-.38-.76-.87-.74-.86.05-1.72.15-2.58.22-.4.03-.65-.18-.74-.55-.12-.5-.27-1.01-.32-1.52-.36-3.87-.96-3.12,2.86-3.73,4.69-.76,9.41-1.35,14.12-2.01.34-.05.69-.09,1.03-.12.61-.05.98.19,1.06.83.14,1.03.31,2.05.46,3.08,1.55,11.04,3.11,22.08,4.66,33.13.23,1.6.45,3.21.67,4.8.92,0,1.08-.69,1.39-1.15,3.84-5.65,7.74-11.26,11.42-17.01,1.44-2.24,3.32-3.44,5.81-3.87,1.7-.29,3.42-.5,5.13-.75.26.14.5.12.71-.11Z"></path>
  <path class="cls-2" d="m148.95,330.4c1.03,6.03,4.87,9.45,10.8,9.62,1.12.03,2.25-.07,3.36-.22,6.08-.84,11.68-3.06,16.99-6.05.83-.47,1.63-.99,2.51-1.35,1.57-.64,2.44-.24,3.03,1.34.57,1.54.93,3.14,1.05,4.8.09,1.33-.34,2.38-1.46,3.1-.8.51-1.59,1.05-2.43,1.49-7.68,4-15.82,6.47-24.45,7.24-3.29.29-6.56.05-9.78-.76-5.51-1.38-9.63-4.54-12.41-9.47-2.55-4.53-3.79-9.44-4.11-14.6-.17-2.69.02-5.36.73-7.97,1.2-4.38,3.53-8.05,6.95-11.03,1.97-1.71,4.14-3.13,6.52-4.2,5.68-2.55,11.62-3.89,17.86-3.8,1.92.03,3.79.32,5.64.8,5.51,1.42,9.55,4.68,12.17,9.73,1.45,2.79,2.31,5.78,2.81,8.86.38,2.32-.5,3.86-2.76,4.62-1.71.58-3.5.94-5.27,1.35-8.5,1.97-17.01,3.91-25.51,5.87-.75.17-1.49.42-2.22.63Zm11.78-22.27c-.22-.22-.45-.23-.71-.08-2.25.04-4.44.38-6.53,1.24-4.33,1.77-6.59,5.04-6.83,9.69-.05.93.09,1.88.15,2.82q-.03.45.37.32c.59-.09,1.2-.14,1.78-.28,4.77-1.1,9.53-2.22,14.3-3.34,1.91-.45,3.86-.73,5.77-1.47-.06-.49-.05-.93-.17-1.32-1.23-4.11-3.63-6.98-8.14-7.58Z"></path>
  <path class="cls-2" d="m274.27,334.11c-2.7.34-5.4.39-8.09,0-.2-.23-.44-.26-.71-.12-6.13-.79-10.97-3.77-14.19-8.99-3.98-6.45-5.63-13.52-4.54-21.11.84-5.85,3.73-10.53,8.32-14.19,1.9-1.52,3.98-2.75,6.22-3.71,5.55-2.38,11.34-3.64,17.4-3.54,1.83.03,3.62.32,5.38.77,5.6,1.43,9.7,4.74,12.35,9.9,1.4,2.73,2.18,5.64,2.76,8.61.45,2.28-.5,3.84-2.67,4.71-.56.22-1.15.35-1.74.49-9.6,2.23-19.19,4.46-28.79,6.69-.83.19-1.65.43-2.46.64.37,4.53,3.63,8.28,7.93,9.19.76.16,1.54.24,2.31.35.24,0,.48.02.73.03.28,0,.56,0,.84,0,.25.18.49.17.72-.04,6.68-.7,12.82-3.01,18.61-6.33.89-.51,1.8-1,2.75-1.38,1.23-.48,1.95-.17,2.5,1.01.69,1.5.96,3.11,1.17,4.72-.17.27-.14.52.11.72.03,1.45-.73,2.41-1.9,3.15-1.9,1.21-3.9,2.22-5.97,3.09-4.94,2.08-9.95,3.93-15.27,4.78-1.02.16-2.05.29-3.07.43-.26-.14-.5-.12-.71.11Zm.01-42.12c-2,.02-3.96.32-5.83,1.01-4.79,1.77-7.35,5.29-7.38,10.69-.01,2.32.31,2.54,2.5,2.04,6.04-1.39,12.08-2.77,18.11-4.2.63-.15,1.38-.16,1.88-.84-1.06-4.63-3.42-8-8.56-8.65-.23-.21-.47-.22-.72-.04Z"></path>
  <path class="cls-2" d="m352.17,322.14c-.6.01-1.21.08-1.81.03-2.01-.16-2.39-.51-2.67-2.45-.23-1.54-.4-3.09-.62-4.63-1-7.02-2.01-14.04-3.03-21.05-.11-.77-.3-1.53-.54-2.27-1.63-5.16-5.61-7.05-10.77-5.92-1.71.38-3.22,1.24-4.59,2.34-1.84,1.47-3.37,3.22-4.83,5.06-.53.67-.65,1.36-.53,2.17.92,6.42,1.83,12.84,2.74,19.26.39,2.74.81,5.47,1.18,8.22.22,1.63-.06,2.15-1.65,2.75-2.36.9-4.87,1.18-7.36,1.45-1.37.15-2.77.16-4.15.1-1.53-.07-1.96-.5-2.19-2.03-.41-2.74-.76-5.48-1.15-8.22-.98-6.94-1.96-13.87-2.93-20.8-.65-4.62-1.28-9.25-1.9-13.88-.25-1.87.01-2.3,1.75-2.9,2.14-.74,4.37-1.04,6.62-1.17.23-.02.47-.05.7-.07.09,0,.17,0,.26-.01,3.31-.09,3.67.57,3.86,3.44.05.68.23,1.36.37,2.04.03.13.2.23.41.46.78-.78,1.56-1.56,2.35-2.33,3.08-2.98,6.52-5.4,10.66-6.69,4.35-1.36,8.78-1.84,13.3-.9,5.78,1.21,9.75,4.55,11.88,10.08,1.1,2.85,1.55,5.83,1.97,8.83.98,6.93,1.95,13.85,2.92,20.78.2,1.45.4,2.91.63,4.36.16.99-.21,1.71-1.09,2.11-.62.29-1.28.51-1.95.68-2.35.62-4.74.97-7.16,1.11-.24.02-.47.05-.71.07Z"></path>
  <path class="cls-2" d="m385.94,317.45c-1.29.19-2.57.27-3.87-.05-.75-.19-1.25-.56-1.39-1.34-.12-.68-.24-1.36-.34-2.05-.98-6.94-1.96-13.87-2.94-20.81-.74-5.22-1.47-10.45-2.21-15.67-.05-.34-.13-.67-.18-.99-.7-.27-1.21.17-1.74.38-1.77.71-3.5,1.48-5.26,2.21-.92.38-1.86.42-2.75-.09-1.84-1.04-2-3.52-.28-4.77.48-.35,1.06-.57,1.62-.81,5.57-2.37,11.14-4.72,16.71-7.08.32-.13.63-.29.96-.39,2.67-.86,4.92.46,5.38,3.22.41,2.47.72,4.96,1.07,7.45.97,6.85,1.93,13.7,2.9,20.55.74,5.22,1.48,10.45,2.22,15.67.04.26.05.52.08.77.14,1-.27,1.7-1.19,2.05-.97.36-1.95.74-2.96.93-1.7.32-3.42.5-5.13.73-.23.03-.46.05-.69.08Z"></path>
  <path class="cls-2" d="m164.09,444.05c.14,1.84.28,3.67.41,5.51-.18.27-.15.52.11.72.05.32.11.64.16.97.05.12.08.32.16.35.26.08.35-.13.39-.35,2.3-2.7,4.62-5.38,6.88-8.12.72-.87,1.46-1.12,2.48-.67.47.21.98.35,1.47.5.5.15.66.52.65.98,0,.35-.04.69-.1,1.03-.89,5.81-1.77,11.62-2.67,17.43-.13.83-.46,1.07-1.22.83-4.06-1.3-3.62-.49-2.9-4.4.47-2.55.91-5.11,1.37-7.66.28-.16.24-.44.03-.53-.25-.11-.4.08-.33.37-2.21,2.07-3.99,4.53-6.01,6.78-.52.58-1.02,1.18-1.53,1.76-.31.36-.7.51-1.15.34-.49-.19-.96-.43-1.01-1.05-.21-2.41-.42-4.82-.62-7.24-.09-1.12-.16-2.24-.24-3.36.11-.38.25-.85-.28-.94-.53-.09-.59.37-.59.79-1.34,2.8-2.66,5.6-4.01,8.39-.48,1-.58,1.02-1.57.73-.08-.02-.16-.06-.24-.09-.96-.34-2.34-.3-2.77-1.14-.45-.89.58-1.87,1.02-2.77,2.19-4.39,4.42-8.77,6.67-13.13.39-.75.65-1.6,1.31-2.16,1.25.14,2.57.32,3.39,1.14.79.79.34,2.14.51,3.23.05.34.07.69.11,1.03-.18.27-.15.52.11.72Z"></path>
  <path class="cls-2" d="m300.34,417.48c2.67,2.57,5.35,5.15,8.02,7.73.11.11.15.29.25.49-.11.19-.2.45-.37.62-.86.84-1.54,1.85-2.59,2.48-1.21-.39-1.87-1.47-2.73-2.27-3.52-3.31-7-6.67-10.48-10.03-.48-.46-1.11-.82-1.36-1.71.71-.74,1.48-1.55,2.25-2.34.33-.34.76-.37,1.2-.34.23.02.46.04.7.06,2.36.14,4.72.29,7.09.43.22.21.46.22.71.07,2.3.14,4.59.27,6.89.41,0,0,.1.06.1.06.42.09.52-.04.3-.41-.05-.3-.23-.47-.54-.49-2.53-2.47-5.08-4.94-7.59-7.43-.81-.8-.81-.94-.07-1.68,3.04-3.04,1.97-3.04,4.99-.18,3.7,3.51,7.32,7.08,10.98,10.64.36.35.83.63.96,1.24-.1.18-.2.43-.36.61-1.99,2.25-1.99,2.27-5.07,2.1-3.71-.2-7.41-.45-11.12-.67-.21-.2-.44-.25-.69-.06-.44-.05-.87-.09-1.31-.14-.21-.18-.53-.24-.64-.02-.24.46.03.74.5.85Z"></path>
  <path class="cls-2" d="m379.45,262.31c-4.52.08-8.71-3.8-8.61-9.09.09-4.94,4.05-8.77,9.03-8.68,4.77.08,8.77,4.07,8.66,8.84-.14,5.73-4.57,9.18-9.07,8.93Z"></path>
  <path class="cls-2" d="m330.97,394.86c.04,1.68-.35,3.29-1.16,4.73-1.27,2.25-2.69,4.42-4.07,6.61-.19.31-.53.43-.9.24-.15-.08-.3-.17-.44-.27-4.77-3.12-9.54-6.23-14.3-9.35-.36-.24-.73-.46-1.09-.7-.52-.36-.56-.8-.22-1.32,1.34-2.01,2.58-4.1,4.02-6.03,2.03-2.74,4.82-4.13,8.27-4.01,5.32.19,9.88,4.86,9.89,10.09Zm-6.57,5.53c.99-.88,1.44-1.9,1.83-2.94.77-2.05.32-3.89-1.12-5.49-.88-.97-1.93-1.67-3.18-2.12-1.48-.53-2.88-.39-4.25.28-1.46.71-2.45,1.93-3.18,3.9,3.29,2.12,6.6,4.25,9.89,6.38Z"></path>
  <path class="cls-2" d="m254.32,455.49c-.25,2.45-1.77,3.92-3.94,4.69-2.6.92-5.27,1.65-7.92,2.44-.48.14-.82-.11-.97-.59-.11-.33-.23-.65-.33-.98-1.54-5.22-3.08-10.45-4.61-15.67-.12-.41-.2-.84-.33-1.26-.16-.52.08-.91.51-1.02,2.33-.64,4.59-1.54,7-1.91,4.47-.67,7.32,2.7,5.97,7.05-.07.24-.17.47-.23.63.09.53.48.56.8.61,2.29.36,3.39,1.88,3.9,3.98.1.42.13.85.19,1.28-.01.25-.03.5-.04.74Zm-10.42-1.93c.27.94.5,1.77.74,2.58.57,1.86.66,1.91,2.45,1.23.48-.18.95-.4,1.37-.68.93-.62,1.25-1.64.9-2.69-.3-.91-1.1-1.51-2.17-1.43-1.09.08-2.22.15-3.3,1Zm-.21-8.51c-1.73.03-2.12.58-1.61,2.35.17.57.35,1.14.52,1.71.15.51.51.68.97.52.48-.16.97-.35,1.39-.62.84-.54,1.14-1.49.85-2.47-.27-.93-1.1-1.51-2.13-1.5Z"></path>
  <path class="cls-2" d="m264.6,447.51c.85,1.79,1.68,3.59,2.55,5.38.29.59.1.98-.42,1.26-.3.17-.62.31-.93.45-2.82,1.31-2.39,1.46-3.71-1.29-2.19-4.59-4.35-9.2-6.52-13.8-.29-.62-.58-1.24-.84-1.82.33-.69.95-.83,1.48-1.08,1.56-.74,3.11-1.49,4.68-2.22.94-.44,1.9-.8,2.96-.89,3.61-.3,6.59,2.25,6.86,5.86.08,1.08-.2,2.06-.72,2.97-.33.59-.74,1.14-1.22,1.86,2.88,1.53,5.67,3.02,8.59,4.57-.52.86-1.41.98-2.1,1.36-.75.41-1.55.76-2.35,1.08-.54.21-.99-.11-1.44-.37-1.94-1.13-3.88-2.25-5.83-3.37-.18-.16-.34-.41-.55-.47-.38-.1-.69,0-.46.51Zm-1.46-9.78c-.08.01-.44.03-.75.14-2.01.72-1.97.88-1.15,2.49.31.61.58,1.24.87,1.86.6,1.27.69,1.63,2.3.62.52-.32.96-.71,1.26-1.25.52-.93.39-1.81-.15-2.67-.49-.78-1.17-1.24-2.38-1.19Z"></path>
  <path class="cls-2" d="m250.6,177.27c1.54.26,3.05.6,4.38,1.48,1.95,1.29,3.02,3.05,2.73,5.46-.21,1.72-.97,3.11-2.6,3.9-.45.22-.91.43-1.44.68.33.45.66.84.94,1.27,1.56,2.38,1.27,5.09-.8,7.03-1.32,1.24-2.93,1.88-4.73,1.69-1.89-.2-3.73-.74-5.38-1.72-2.47-1.48-3.55-4.29-2.76-6.89.48-1.59,1.44-2.72,3-3.32.56-.21,1.13-.41,1.76-.63-.24-.4-.48-.75-.66-1.12-1.59-3.26-.21-6.44,3.28-7.58.33-.11.67-.16,1.01-.24.43.19.85.19,1.28,0Zm-2.08,11.94c-.25-.29-.5-.29-.75,0-1.18.33-1.89,1.09-2.16,2.29-.18.82.02,1.53.53,2.15.72.87,2.03,1.27,3.02.9,1.06-.39,1.64-1.2,1.81-2.29.18-1.13-.27-2.02-1.26-2.59-.36-.21-.79-.31-1.19-.46Zm2.48-3.35c1.33.03,2.44-1.08,2.45-2.45,0-1.27-1.14-2.35-2.54-2.39-1.27-.03-2.37.93-2.44,2.14-.08,1.39,1.11,2.66,2.53,2.69Z"></path>
  <path class="cls-2" d="m103.02,423.62c-.19-.12-.44-.21-.59-.38-.86-.96-1.69-1.94-2.56-2.94.53-1.04,1-1.96,1.47-2.87.26-.51.25-.99-.13-1.43-1.3-1.5-2.61-2.99-3.91-4.49-.31-.36-.69-.49-1.15-.39-.17.04-.33.09-.5.13-.98.22-1.88.97-2.95.62-.57-.19-2.03-2.22-2.63-3.38.12-.1.23-.25.38-.3,6.18-2.17,12.38-4.3,18.54-6.52,1.1-.4,1.8-.24,2.43.69.24.36.53.69.85.98.83.76.85,1.53.33,2.53-3.07,5.79-6.09,11.62-9.13,17.42-.07.13-.25.2-.43.34Zm3.63-16.01c.26-.11.34-.3.07-.43-.29-.14-.57-.06-.71.29-1.73.64-3.5,1.18-5.18,2,1.22,2.14,1.65,2.6,3.12,3.34.9-1.73,1.8-3.46,2.7-5.19Z"></path>
  <path class="cls-2" d="m299.44,434.33c-.66.5-1.06.83-1.49,1.12-.79.52-1.54,1.3-2.4,1.45-.9.16-1.65-.78-2.42-1.3-.75-.51-1.34-.55-2.09.01-1.45,1.09-2.95,2.11-4.44,3.14-.56.39-.8.84-.56,1.54.19.57.2,1.2.41,1.76.32.86.14,1.47-.64,1.97-.94.6-1.84,1.26-2.71,1.87-.68-.3-.67-.88-.78-1.33-1.42-5.95-2.81-11.91-4.21-17.87-.08-.34-.12-.68-.19-1.02-.15-.68.12-1.13.69-1.52,3.23-2.2,2.19-2.09,5.08-.23,4.64,2.99,9.23,6.06,13.84,9.1.57.38,1.12.78,1.9,1.33Zm-16.17-4.85c.55,1.88.84,3.83,1.66,5.74,1.39-.61,2.49-1.5,3.7-2.5-1.5-1.44-3.21-2.41-4.81-3.52-.13-.23-.32-.35-.53-.15-.07.07-.01.28-.01.42Z"></path>
  <path class="cls-2" d="m278.54,189.48c-2.25,1.43-4.68,2.07-6.9,3.44.81.46,1.51.8,2.15,1.22,2.92,1.88,3.87,4.96,2.51,8.12-.63,1.45-1.58,2.68-2.87,3.61-1.55,1.12-3.28,1.54-5.16,1.14-2.06-.44-3.93-1.34-5.53-2.71-2.49-2.13-3.17-5.21-1.86-8.21.9-2.05,2.35-3.65,4.3-4.69,2.82-1.5,5.7-2.87,8.56-4.3.4-.2.84-.28,1.23-.02,1.13.74,2.34,1.36,3.55,2.4Zm-6.61,9.78c.01-1.79-1.62-3.38-3.53-3.44-1.77-.06-3.4,1.63-3.41,3.53-.01,1.83,1.59,3.4,3.52,3.43,1.82.03,3.41-1.6,3.42-3.51Z"></path>
  <path class="cls-2" d="m143.81,452.69c-1.38-.38-2.48-1.22-3.65-1.91-.33-.19-.43-.53-.39-.89.08-.86.16-1.72.27-2.58.07-.57-.1-1-.62-1.29-1.73-.98-3.45-1.96-5.18-2.95-.52-.3-.96-.13-1.43.2-.84.59-1.51,1.7-2.52,1.7-1.19.01-2.13-1.03-3.2-1.55-.32-.16-.56-.39-.73-.89.2-.16.47-.38.74-.59,5.01-3.97,10.02-7.93,15.01-11.93.78-.63,1.4-.71,2.31-.2,2.5,1.42,2.57,1.38,2.19,4.12-.83,5.98-1.7,11.96-2.56,17.94-.04.25-.14.48-.24.82Zm-1.95-15.94c-.07-.78-.19-.88-.75-.52-.12.08-.18.25-.27.39-.66.55-1.32,1.09-1.97,1.65-.68.59-1.35,1.2-2.13,1.88,1.37.93,2.56,1.72,3.98,2.21.71-1.87.68-3.79,1.14-5.61Z"></path>
  <path class="cls-2" d="m227.72,172.23c1.47.05,2.92.18,4.31.72,3.53,1.36,5.17,4.23,4.54,7.99-.31,1.82-1.04,3.46-2.21,4.88-2.14,2.6-4.69,4.8-7.08,7.16-.41.4-.88.46-1.43.32-1.08-.29-2.17-.54-3.25-.82-.33-.09-.41-.56-.14-.83.49-.49,1-.95,1.5-1.42,1.12-1.07,2.24-2.14,3.36-3.21.07-.11.23-.25.2-.33-.08-.27-.3-.24-.52-.14-1.31,0-2.56-.29-3.72-.93-1.6-.89-2.61-2.23-2.98-4.01-1.01-4.86,1.78-8.72,6.72-9.34.23-.01.46-.02.69-.03Zm.85,10.77c1.98.02,3.34-1.4,3.36-3.49.01-1.89-1.57-3.41-3.52-3.39-1.88.02-3.37,1.59-3.38,3.56,0,1.94,1.44,3.3,3.54,3.32Z"></path>
  <path class="cls-2" d="m148.39,191.76c.3.42.54.67.68.98,1.29,2.74,1.77,2.24-1.15,3.7-1,.5-1.99,1.03-2.95,1.54.3,1.82.51,2.25,1.88,3.94,1.58-.79,3.19-1.61,4.81-2.4.76-.37,1.02-.26,1.45.49.25.45.49.91.72,1.38.57,1.16.56,1.23-.51,1.79-1.84.96-3.69,1.89-5.54,2.82-1.14.57-2.3,1.13-3.61,1.77-3.15-5.98-6.07-11.93-9.04-17.83,1.51-1.25,7.94-4.54,10.18-5.2.33.58.68,1.16.99,1.77.76,1.51.76,1.52-.77,2.32-1.15.6-2.32,1.15-3.46,1.76-.89.47-.94.67-.47,1.64.34.69.73,1.35,1.09,2.02,1.19,0,1.99-.75,2.92-1.15.93-.4,1.83-.87,2.78-1.33Z"></path>
  <path class="cls-2" d="m163.86,177.78q2.29.52,1.78,2.62c-.12.5-.29.98-.48,1.59-.78-.08-1.52-.18-2.26-.24-.9-.06-1.71.21-2.42.75-.67.51-.96,1.36-.71,2.07.25.71.77,1.13,1.52,1.23.43.06.86.06,1.29.07.86.03,1.73.02,2.59.07,3.22.18,5.08,1.5,5.71,4.28.68,3.01.25,5.47-2.47,7.31-2.71,1.84-5.67,2.46-8.85,1.22-1.23-.48-1.37-.68-1.02-1.88.24-.82.54-1.62.8-2.42.9-.14,1.57.33,2.29.53,1.35.37,2.57.12,3.7-.64.77-.52,1.16-1.26,1-2.22-.14-.86-.74-1.42-1.8-1.58-.77-.12-1.54-.16-2.32-.2-.6-.04-1.21,0-1.81-.04-3.09-.2-4.64-1.46-5.32-4.32-.64-2.67.39-5.34,2.65-6.76,1.65-1.04,3.49-1.44,5.42-1.49.22.21.46.24.71.06Z"></path>
  <path class="cls-2" d="m126.22,427.13c1.56,1.24,3.03,2.41,4.55,3.61-.23.41-.37.73-.57,1-1.9,2.55-1.45,2.43-3.85.63-.76-.57-1.53-1.13-2.3-1.68-.06-.04-.16-.04-.45-.1-.84.69-1.42,1.75-2.16,2.67-.81,1.01-1.57,2.06-2.36,3.09-.39.51-.84.5-1.33.12-.75-.58-1.51-1.16-2.27-1.73-.52-.39-.55-.78-.15-1.3,3.77-4.95,7.53-9.91,11.29-14.87.1-.13.28-.2.42-.3.65,0,1.05.5,1.51.84,2.08,1.55,4.15,3.12,6.21,4.69,1.3.99,1.31,1.02.4,2.21-1.75,2.3-1.27,2.13-3.48.51-.21-.15-.41-.32-.62-.47-3.09-2.22-2.32-2.6-4.84,1.08Z"></path>
  <path class="cls-2" d="m221.5,445.83c.44-.05.88-.1,1.32-.15.25-.02.49-.04.74-.06.62,0,1.08.25.75.91-.57,1.15-1.25,2.25-1.9,3.37-.95,1.64-1.83,3.32-2.87,4.9-.95,1.44-1.42,2.92-1.06,4.62-.18.27-.15.51.1.73.09,1.81.2,3.61.28,5.42.03.71-.5.79-1.03.84-.23.02-.46.04-.7.06-.45.05-.9.1-1.34.15-.26-.2-.49-.15-.71.07-.62,0-.89-.33-.92-.94-.08-1.51-.17-3.03-.26-4.54.18-.27.15-.51-.1-.73.22-2.37-.77-4.23-2.28-5.98-1.78-2.07-3.37-4.29-5.03-6.46-.66-.86-.6-.95.8-1.31.25.3.47.22.67-.06,1.11,0,2.35-.49,3.29.11.82.52,1.3,1.57,1.94,2.37.78.98,1.42,2.09,2.44,3.07.94-1.12,1.42-2.32,2.07-3.4.36-.59.73-1.17.99-1.8.4-.99,1.19-1.13,2.09-1.11.24-.02.47-.04.71-.07Z"></path>
  <path class="cls-2" d="m172.78,175.2c1.2-.72,2.36-.69,3.44-.9,2.87-.56,5.75-1.11,8.63-1.64,1.03-.19,1.07-.15,1.36.96.04.17.08.33.12.5q.49,2.17-1.71,2.66t-1.76,2.59c.69,3.73,1.39,7.45,2.07,11.18.12.68.22,1.36.32,2.04.07.5-.19.8-.64.96-.08.03-.17.05-.25.06-3.91.51-3.44,1.63-4.21-2.7-.61-3.39-1.25-6.78-1.89-10.16-.11-.59-.26-1.18-.37-1.77-.12-.63-.47-.87-1.1-.75-.68.13-1.35.3-2.03.39-1.18.17-1.41.02-1.61-1.05-.14-.76-.24-1.52-.37-2.37Z"></path>
  <path class="cls-2" d="m195.86,466.43c-.17-.01-.34-.01-.51-.03q-1.26-.15-1.27-1.58c.25-.22.27-.46.08-.72.15-2.87.3-5.75.45-8.62.24-.22.27-.46.09-.72.13-2.54.23-5.08.39-7.61.05-.85.29-1.04,1.09-1.05.59,0,1.18.05,1.78.07.21.3.43.36.69.06.54.05,1.07.1,1.26.73-.03.25-.06.5-.09.75-.15,2.87-.3,5.74-.45,8.61-.24.22-.26.46-.09.72-.07,1.55-.14,3.1-.21,4.64-.03.62.26.94.9.98,1.38.07,2.75.15,4.12.28,1.04.1,1.16.27,1.14,1.29,0,.34-.03.69-.05,1.03-.11,1.55-.19,1.67-1.64,1.61-2.32-.1-4.64-.25-6.96-.38-.24-.02-.48-.04-.72-.06Z"></path>
  <path class="cls-2" d="m211.97,181.36c0,3.02.02,6.04,0,9.06,0,1.03-.2,1.18-1.23,1.2-.86.02-1.73-.02-2.59-.03-.66,0-.9-.4-.9-.99,0-.69,0-1.38.01-2.07.05-4.06.11-8.11.14-12.17,0-1.08-.11-1.17-1.14-1.29-.17-.02-.35,0-.52-.02-.98-.11-1.08-.19-1.11-1.02-.02-.6-.01-1.21.02-1.81.04-.89.24-1.14,1.04-1.12,2.06.05,4.13-.09,6.17.27.74,1.92.15,3.89.25,5.84.07,1.38.01,2.76.01,4.14-.05,0-.11,0-.16,0Z"></path>
  <path class="cls-2" d="m182.11,464.1c.8-5.1,1.6-10.21,2.39-15.31.05-.34.03-.7.14-1.02.31-.96.1-2.07.79-2.93,1.29.01,2.57.12,3.81.51.36.11.52.43.47.81-.17,1.19-.34,2.39-.52,3.58-.72,4.68-1.44,9.36-2.16,14.04-.05.34-.14.67-.24,1-.12.36-.37.59-.77.53-1.19-.18-2.38-.38-3.57-.57-.11-.21-.22-.42-.33-.64Z"></path>
  <path class="cls-2" d="m193.22,189.85c-.04-1.61,1.07-2.83,2.64-2.89,1.56-.06,2.78,1.11,2.83,2.7.05,1.59-1.09,2.84-2.63,2.91-1.52.06-2.8-1.16-2.84-2.71Z"></path>
  <path class="cls-3" d="m106.57,319.29c.08-.3.1-.64.25-.9.1-.17.39-.23.59-.34.1.21.25.4.28.62.03.23-.05.47-.08.71-.33-.18-.67-.28-1.04-.09Z"></path>
  <path class="cls-3" d="m159.57,448.09c0-.42.06-.88.59-.79.54.09.39.56.28.94l-.87-.16Z"></path>
  <path class="cls-3" d="m78.18,333.01c-.23-.17-.27-.4-.17-.64.06-.14.18-.26.28-.39.06.14.19.29.16.41-.05.22-.2.41-.31.62,0,0,.05,0,.05,0Z"></path>
  <path class="cls-3" d="m300.34,417.48c-.47-.11-.74-.39-.5-.85.11-.22.43-.16.64.02-.05.28-.1.55-.15.83Z"></path>
  <path class="cls-3" d="m91.93,319.39c0,.08.05.18.02.25-.13.3-.31.67-.69.53-.35-.13-.33-.52-.2-.85.29.03.58.05.87.08Z"></path>
  <path class="cls-3" d="m250.6,177.27c-.43.19-.85.19-1.28,0,.43-.33.85-.33,1.28,0Z"></path>
  <path class="cls-3" d="m264.6,447.51c-.22-.51.08-.62.46-.51.21.06.37.31.55.47-.34.01-.68.03-1.02.04Z"></path>
  <path class="cls-3" d="m125.13,343.84c-.26-.2-.3-.44-.14-.72.26.2.31.44.14.72Z"></path>
  <path class="cls-3" d="m77.3,346.23c.18.27.15.51-.1.72-.18-.27-.15-.51.1-.72Z"></path>
  <path class="cls-3" d="m125.93,348.28c-.35,0-.49-.16-.41-.5.29.04.4.24.41.5Z"></path>
  <path class="cls-3" d="m227.72,172.23c-.23,0-.46.02-.69.03.22-.31.45-.35.69-.03Z"></path>
  <path class="cls-3" d="m76.82,352.99c.17.27.14.51-.11.72-.19-.27-.15-.51.11-.72Z"></path>
  <path class="cls-3" d="m163.86,177.78c-.25.19-.49.15-.71-.06.25-.17.49-.16.71.06Z"></path>
  <path class="cls-3" d="m227.01,186.55c.21-.1.43-.13.52.14.03.08-.13.22-.2.33-.1-.16-.21-.31-.31-.47Z"></path>
  <path class="cls-3" d="m314.47,278.12c-.23.02-.47.05-.7.07.21-.29.43-.38.7-.07Z"></path>
  <path class="cls-3" d="m118.9,287.24c-.26-.2-.3-.44-.14-.72.26.2.3.44.14.72Z"></path>
  <path class="cls-3" d="m232.93,289.5c-.21.23-.45.25-.71.11.21-.24.44-.3.71-.11Z"></path>
  <path class="cls-3" d="m295.23,412.16c-.23-.02-.46-.04-.7-.06.26-.31.49-.23.7.06Z"></path>
  <path class="cls-3" d="m303.03,412.66c-.25.16-.49.14-.71-.07.26-.21.5-.17.71.07Z"></path>
  <path class="cls-3" d="m310.01,413.12s-.1-.06-.1-.06c-.05-.28-.09-.56-.14-.85.31.03.48.19.54.49-.12.12-.22.26-.3.41Z"></path>
  <path class="cls-3" d="m119.42,291.91c-.26-.2-.3-.44-.14-.72.26.2.31.44.14.72Z"></path>
  <path class="cls-3" d="m301.79,416.79c.25-.19.48-.14.69.06-.25.17-.48.16-.69-.06Z"></path>
  <path class="cls-3" d="m87.21,295.05c-.13-.15-.27-.31-.4-.46.45-.12.55.06.4.46Z"></path>
  <path class="cls-3" d="m119.93,296.59c-.26-.2-.3-.44-.14-.72.26.2.31.44.14.72Z"></path>
  <path class="cls-3" d="m385.94,317.45c.23-.03.46-.05.69-.08-.2.27-.42.39-.69.08Z"></path>
  <path class="cls-3" d="m301.18,322.55c-.25-.21-.28-.45-.11-.72.26.21.29.45.11.72Z"></path>
  <path class="cls-3" d="m352.17,322.14c.24-.02.47-.05.71-.07-.21.31-.44.38-.71.07Z"></path>
  <path class="cls-3" d="m274.47,323.83c-.24,0-.48-.02-.73-.03.25-.3.5-.28.73.03Z"></path>
  <path class="cls-3" d="m276.03,323.79c-.23.21-.47.22-.72.04.23-.23.47-.25.72-.04Z"></path>
  <path class="cls-3" d="m108.86,332.23c.26.2.3.45.12.72-.25-.2-.29-.45-.12-.72Z"></path>
  <path class="cls-3" d="m124.1,334.49c-.26-.2-.31-.44-.14-.72.26.2.3.44.14.72Z"></path>
  <path class="cls-3" d="m221.5,445.83c-.24.02-.47.04-.71.07.21-.31.44-.38.71-.07Z"></path>
  <path class="cls-3" d="m223.56,445.62c-.25.02-.49.04-.74.06.22-.27.47-.27.74-.06Z"></path>
  <path class="cls-3" d="m198.64,446.22c-.25.3-.48.24-.69-.06.23.02.46.04.69.06Z"></path>
  <path class="cls-3" d="m265.47,333.99c.27-.14.5-.11.71.12-.27.18-.5.11-.71-.12Z"></path>
  <path class="cls-3" d="m274.27,334.11c.21-.23.45-.25.71-.11-.21.24-.44.3-.71.11Z"></path>
  <path class="cls-3" d="m207.96,446.67c-.2.27-.42.36-.67.06.22-.02.45-.04.67-.06Z"></path>
  <path class="cls-3" d="m109.4,337.42c.26.2.3.44.13.72-.26-.2-.3-.44-.13-.72Z"></path>
  <path class="cls-3" d="m199.8,447.71c.03-.25.06-.5.09-.75.25.28.25.54-.09.75Z"></path>
  <path class="cls-3" d="m124.61,339.16c-.26-.2-.3-.44-.14-.72.26.2.3.44.14.72Z"></path>
  <path class="cls-3" d="m164.61,450.28c-.25-.21-.29-.45-.11-.72.25.21.27.45.11.72Z"></path>
  <path class="cls-3" d="m164.09,444.05c-.25-.21-.29-.45-.11-.72.25.21.27.45.11.72Z"></path>
  <path class="cls-3" d="m165.32,451.24c-.04.22-.12.42-.39.35-.08-.02-.11-.23-.16-.35.18,0,.37,0,.55,0Z"></path>
  <path class="cls-3" d="m77.86,338.97c.17.27.14.51-.11.72-.19-.27-.15-.51.11-.72Z"></path>
  <path class="cls-3" d="m194.69,454.75c.18.27.16.51-.09.72-.19-.27-.16-.51.09-.72Z"></path>
  <path class="cls-3" d="m254.32,455.49c.01-.25.03-.5.04-.74.32.27.3.51-.04.74Z"></path>
  <path class="cls-3" d="m199.27,457.04c-.18-.27-.15-.51.09-.72.19.27.16.51-.09.72Z"></path>
  <path class="cls-3" d="m218.59,460.15c-.25-.21-.28-.46-.1-.73.25.21.28.45.1.73Z"></path>
  <path class="cls-3" d="m213.81,460.48c.25.21.28.46.1.73-.25-.21-.28-.46-.1-.73Z"></path>
  <path class="cls-3" d="m182.11,464.1c.11.21.22.42.33.64-.52,0-.59-.23-.33-.64Z"></path>
  <path class="cls-3" d="m194.16,464.1c.19.27.16.51-.08.72-.18-.27-.16-.51.08-.72Z"></path>
  <path class="cls-3" d="m195.86,466.43c.24.02.48.04.72.06-.27.31-.5.26-.72-.06Z"></path>
  <path class="cls-3" d="m215.09,466.68c.22-.22.45-.26.71-.07-.22.21-.46.22-.71.07Z"></path>
  <path class="cls-3" d="m109.93,342.61c.26.2.29.44.13.72-.26-.2-.3-.44-.13-.72Z"></path>
  <path class="cls-3" d="m217.14,466.47c.23-.02.46-.04.7-.06-.21.28-.43.37-.7.06Z"></path>
  <path class="cls-3" d="m209.11,317.21c-.23-.22-.12-.39.11-.48.03-.01.16.19.24.29,0,0-.1.22-.1.22l-.24-.03Z"></path>
  <path class="cls-1" d="m146.82,321.8c-.05-.94-.2-1.88-.15-2.82.24-4.65,2.5-7.91,6.83-9.69,2.09-.86,4.28-1.2,6.53-1.24.21.23.45.27.71.08,4.51.6,6.9,3.47,8.14,7.58.12.4.11.83.17,1.32-1.91.74-3.86,1.02-5.77,1.47-4.76,1.12-9.53,2.24-14.3,3.34-.58.14-1.19.19-1.78.28-.12-.11-.25-.21-.37-.32Z"></path>
  <path class="cls-3" d="m160.74,308.13c-.26.2-.49.16-.71-.08.26-.16.49-.14.71.08Z"></path>
  <path class="cls-3" d="m146.82,321.8c.12.11.25.21.37.32q-.4.13-.37-.32Z"></path>
  <path class="cls-1" d="m275,292.04c5.14.65,7.5,4.02,8.56,8.65-.51.69-1.25.7-1.88.84-6.03,1.43-12.07,2.81-18.11,4.2-2.19.5-2.51.27-2.5-2.04.03-5.4,2.58-8.92,7.38-10.69,1.87-.69,3.83-.98,5.83-1.01.23.23.47.25.72.04Z"></path>
  <path class="cls-3" d="m275,292.04c-.25.21-.49.19-.72-.04.25-.18.49-.17.72.04Z"></path>
  <path class="cls-3" d="m170.99,451.01c-.07-.29.08-.48.33-.37.21.09.25.37-.03.53l-.23.07-.07-.23Z"></path>
  <path class="cls-3" d="m310.31,412.71c.22.37.12.5-.3.41.08-.15.18-.29.3-.41Z"></path>
  <path class="cls-1" d="m324.4,400.39c-3.29-2.12-6.6-4.26-9.89-6.38.73-1.97,1.71-3.19,3.18-3.9,1.37-.66,2.77-.81,4.25-.28,1.25.45,2.31,1.15,3.18,2.12,1.44,1.6,1.89,3.44,1.12,5.49-.39,1.04-.85,2.07-1.83,2.94Z"></path>
  <path class="cls-1" d="m243.9,453.56c1.08-.85,2.21-.92,3.3-1,1.07-.08,1.87.52,2.17,1.43.34,1.06.03,2.07-.9,2.69-.42.28-.9.5-1.37.68-1.79.69-1.88.64-2.45-1.23-.25-.82-.47-1.64-.74-2.58Z"></path>
  <path class="cls-1" d="m243.68,445.04c1.03-.01,1.86.57,2.13,1.5.28.98-.01,1.93-.85,2.47-.42.27-.91.46-1.39.62-.46.15-.82-.02-.97-.52-.17-.57-.35-1.14-.52-1.71-.51-1.77-.13-2.33,1.61-2.35Z"></path>
  <path class="cls-1" d="m263.14,437.74c1.21-.05,1.9.41,2.38,1.19.54.86.67,1.75.15,2.67-.3.54-.75.93-1.26,1.25-1.61,1.01-1.7.65-2.3-.62-.29-.62-.57-1.25-.87-1.86-.82-1.62-.86-1.77,1.15-2.49.32-.11.67-.12.75-.14Z"></path>
  <path class="cls-1" d="m248.52,189.21c.4.15.83.25,1.19.46.98.57,1.44,1.45,1.26,2.59-.17,1.09-.75,1.91-1.81,2.29-.99.36-2.3-.03-3.02-.9-.51-.62-.72-1.33-.53-2.15.27-1.2.98-1.96,2.16-2.29.25,0,.5,0,.75,0Z"></path>
  <path class="cls-1" d="m251,185.86c-1.42-.03-2.62-1.29-2.53-2.69.07-1.21,1.17-2.18,2.44-2.14,1.4.03,2.55,1.11,2.54,2.39,0,1.36-1.12,2.47-2.45,2.45Z"></path>
  <path class="cls-3" d="m248.52,189.21c-.25,0-.5,0-.75,0,.25-.29.5-.3.75,0Z"></path>
  <path class="cls-1" d="m106.65,407.61c-.9,1.73-1.8,3.46-2.7,5.19-1.47-.74-1.9-1.2-3.12-3.34,1.68-.82,3.45-1.36,5.18-2,.21.05.43.1.64.15Z"></path>
  <path class="cls-3" d="m106.65,407.61c-.21-.05-.43-.1-.64-.15.14-.34.42-.43.71-.29.27.14.19.32-.07.43Z"></path>
  <path class="cls-1" d="m283.82,429.21c1.6,1.11,3.31,2.07,4.81,3.52-1.2.99-2.3,1.89-3.7,2.5-.82-1.91-1.11-3.86-1.66-5.74.18-.09.36-.18.55-.27Z"></path>
  <path class="cls-3" d="m283.82,429.21c-.18.09-.36.18-.55.27,0-.14-.06-.35.01-.42.22-.2.4-.08.53.15Z"></path>
  <path class="cls-1" d="m271.93,199.25c-.01,1.91-1.6,3.54-3.42,3.51-1.93-.03-3.53-1.59-3.52-3.43.01-1.9,1.64-3.59,3.41-3.53,1.91.06,3.54,1.66,3.53,3.44Z"></path>
  <path class="cls-1" d="m141.86,436.75c-.46,1.82-.42,3.74-1.14,5.61-1.41-.5-2.61-1.28-3.98-2.21.77-.69,1.44-1.29,2.13-1.88.65-.56,1.31-1.1,1.97-1.65.34.05.68.09,1.02.14Z"></path>
  <path class="cls-3" d="m141.86,436.75c-.34-.05-.68-.09-1.02-.14.09-.13.15-.31.27-.39.55-.36.68-.26.75.52Z"></path>
  <path class="cls-1" d="m228.58,183.01c-2.1-.02-3.55-1.38-3.54-3.32.01-1.97,1.5-3.53,3.38-3.56,1.95-.03,3.53,1.5,3.52,3.39-.01,2.09-1.38,3.51-3.36,3.49Z"></path>
</svg>
